<svg width="64" height="64" viewBox="0 0 64 64" fill="none" xmlns="http://www.w3.org/2000/svg">
  <!-- Background -->
  <rect width="64" height="64" rx="12" fill="#10b981"/>
  
  <!-- Outer circle -->
  <circle cx="32" cy="32" r="28" stroke="#ffffff" strokeWidth="2" fill="none"/>
  
  <!-- Inner circle -->
  <circle cx="32" cy="32" r="22" stroke="#ffffff" strokeWidth="1.5" fill="none" opacity="0.6"/>
  
  <!-- Leaf shape - top left -->
  <path d="M 24 20 Q 20 16 18 20 Q 16 24 20 28 Q 24 24 24 20" fill="#ffffff"/>
  
  <!-- Leaf shape - top right -->
  <path d="M 40 20 Q 44 16 46 20 Q 48 24 44 28 Q 40 24 40 20" fill="#ffffff" opacity="0.8"/>
  
  <!-- Apple shape - center -->
  <circle cx="32" cy="36" r="8" fill="#ffffff" opacity="0.9"/>
  <path d="M 32 28 Q 30 26 32 24 Q 34 26 32 28" fill="#ffffff"/>
  
  <!-- Leaf on apple -->
  <path d="M 36 30 Q 40 28 42 30 Q 40 32 36 32" fill="#ffffff" opacity="0.8"/>
  
  <!-- Bottom leaf - left -->
  <path d="M 20 44 Q 16 48 18 52 Q 22 50 24 46" fill="#ffffff" opacity="0.7"/>
  
  <!-- Bottom leaf - right -->
  <path d="M 44 44 Q 48 48 46 52 Q 42 50 40 46" fill="#ffffff" opacity="0.7"/>
</svg>
